<?xml version="1.0" encoding="iso-8859-1"?>
<!-- Generator: Adobe Illustrator 19.0.0, SVG Export Plug-In . SVG Version: 6.00 Build 0)  -->
<svg version="1.1" id="Capa_1" xmlns="http://www.w3.org/2000/svg" xmlns:xlink="http://www.w3.org/1999/xlink" x="0px" y="0px"
	 viewBox="0 0 512.001 512.001" style="enable-background:new 0 0 512.001 512.001;" xml:space="preserve">
<path style="fill:#8E9D35;" d="M382.78,189.582L382.78,189.582c5.248-1.466,10.561-2.646,15.911-3.539
	c18.783-48.965,5.906-102.84,5.906-102.84s-54.28,11.044-90.754,48.729c1.447,5.227,2.62,10.547,3.504,15.923
	c3.44,20.918,2.453,42.293-2.839,62.766l12.56,8.01C343.398,205.197,362.363,195.286,382.78,189.582z"/>
<path d="M376.682,136.979c-0.66,0-1.31-0.069-1.96-0.199c-0.64-0.12-1.26-0.32-1.87-0.57c-0.6-0.25-1.18-0.561-1.72-0.91
	c-0.55-0.37-1.06-0.79-1.52-1.25c-0.46-0.46-0.88-0.97-1.25-1.52c-0.36-0.54-0.67-1.12-0.92-1.721c-0.25-0.609-0.44-1.24-0.57-1.87
	c-0.13-0.649-0.19-1.31-0.19-1.96c0-2.63,1.07-5.21,2.93-7.069c0.46-0.46,0.97-0.88,1.52-1.24c0.54-0.36,1.12-0.67,1.72-0.92
	c0.61-0.25,1.23-0.44,1.87-0.57c1.29-0.26,2.62-0.26,3.91,0c0.64,0.13,1.27,0.32,1.87,0.57c0.61,0.25,1.19,0.56,1.73,0.92
	c0.55,0.36,1.06,0.78,1.52,1.24c1.86,1.859,2.93,4.439,2.93,7.069c0,0.65-0.07,1.311-0.2,1.96c-0.13,0.63-0.32,1.261-0.57,1.87
	c-0.25,0.601-0.56,1.181-0.92,1.721c-0.36,0.55-0.78,1.059-1.24,1.52c-0.46,0.461-0.97,0.88-1.52,1.25
	c-0.54,0.35-1.12,0.66-1.73,0.91c-0.6,0.25-1.23,0.45-1.87,0.57C377.992,136.91,377.331,136.979,376.682,136.979z"/>
<path style="fill:#ED6435;" d="M358.767,251.784l-0.262-0.594c-4.826-11.273-12.826-20.692-23.037-27.203l-30.117-19.206
	c-9.772-6.232-21.179-9.379-32.759-9.018l-0.712,0.02c-16.368,0.502-31.477,7.565-42.263,19.102
	c1.138,6.209,1.295,12.653,0.358,19.106l-11.94,88.791l-3.69,27.4c-0.28,2.06-0.57,4.12-0.87,6.18
	c-1.77,12.04-3.96,24.01-6.58,35.88c-3.06,13.9-6.71,27.67-10.95,41.27c-7.5,24.04-16.6,50.19-23.01,58.54
	c-4.998,6.517-12.366,9.823-19.774,9.936c3.028,0.06,6.133-0.421,9.197-1.535c9.894-3.594,31.627-20.75,50.877-36.986
	c10.887-9.187,21.369-18.835,31.423-28.909c8.591-8.599,16.874-17.514,24.84-26.714c1.361-1.576,2.713-3.157,4.057-4.743
	l17.843-21.118l57.808-68.445C363.932,296.471,367.644,272.496,358.767,251.784z"/>
<path style="fill:#439046;" d="M449.826,186.225c-22.32-3.887-45.225-2.74-67.046,3.356l0,0
	c-20.417,5.704-39.381,15.615-55.711,29.049l8.401,5.357c10.211,6.511,18.211,15.93,23.037,27.203l0.262,0.594
	c0.472,1.102,0.908,2.209,1.309,3.328l14.889-12.191c15.276-12.509,32.84-21.925,51.714-27.723l68.564-21.064L449.826,186.225z"/>
<path style="fill:#F4731F;" d="M229.973,233.992l-11.94,88.791l-3.69,27.4c-0.28,2.06-0.57,4.12-0.87,6.18
	c-1.77,12.04-3.96,24.01-6.58,35.88c-3.06,13.9-6.71,27.67-10.95,41.27c-7.5,24.04-16.6,50.19-23.01,58.54
	c-10.17,13.26-30.15,13.26-40.32,0.01c-6.41-8.36-15.52-34.56-23.02-58.63c-1.27-4.08-2.48-8.17-3.64-12.27
	c-3.15-11.09-5.91-22.29-8.28-33.58c-2.61-12.34-4.75-24.77-6.43-37.28l-0.53-3.94l-4.51-33.58l-2.86-21.23l-2.69-20l-1.83-13.57
	l-2.69-20l-0.43-3.2c-3.31-22.79,6.66-45.48,25.76-58.5l0.59-0.4c9.57-6.53,20.88-10.01,32.47-10.01h35.72
	c12.11,0,23.92,3.64,34.05,10.55l0.54,0.36C223.453,189.472,233.214,211.682,229.973,233.992z"/>
<path style="fill:#8E9D35;" d="M114.029,111.424L114.029,111.424c14.148,15.787,24.808,34.34,31.354,54.447h14.897
	c6.546-20.107,17.207-38.66,31.354-54.447c3.636-4.058,7.482-7.91,11.513-11.539C192.657,48.5,152.832,10,152.832,10
	s-39.828,38.497-50.318,89.882C106.544,103.511,110.393,107.366,114.029,111.424z"/>
<g>
	<path style="fill:#439046;" d="M97.934,178.879c1.139-0.903,2.314-1.77,3.528-2.597l0.59-0.4c9.57-6.53,20.88-10.01,32.47-10.01
		h10.86c-6.546-20.107-17.207-38.66-31.354-54.447l0,0c-15.12-16.872-33.816-30.155-54.725-38.879L16.758,54.793l46.483,54.625
		c12.795,15.037,22.542,32.42,28.696,51.18L97.934,178.879z"/>
	<path style="fill:#439046;" d="M246.36,72.545c-20.908,8.724-39.605,22.007-54.725,38.879
		c-14.147,15.787-24.808,34.341-31.354,54.447h9.963c12.11,0,23.92,3.64,34.05,10.55l0.54,0.36c0.991,0.675,1.953,1.375,2.893,2.102
		l5.998-18.285c6.154-18.76,15.901-36.144,28.697-51.18l46.483-54.625L246.36,72.545z"/>
	<path style="fill:#439046;" d="M317.347,147.855c-3.677-22.355-12.299-43.607-25.237-62.205l-13.252-19.048l-9.013,10.592
		l5.759,41.664c2.704,19.558,1.575,39.455-3.323,58.582l-4.772,18.635c1.448-0.15,2.9-0.247,4.371-0.292l0.712-0.02
		c11.58-0.36,22.987,2.787,32.759,9.018l9.157,5.839C319.8,190.148,320.787,168.773,317.347,147.855z"/>
</g>
<g>
	<path style="fill:#F6A35D;" d="M145.833,274.773c0,4.63-1.88,8.83-4.92,11.87c-3.04,3.04-7.24,4.91-11.87,4.91h-45.7l-2.69-20
		l-1.83-13.57h50.22C138.313,257.982,145.833,265.492,145.833,274.773z"/>
	<path style="fill:#F6A35D;" d="M145.83,404.377c0,4.626-1.883,8.831-4.922,11.871c-3.039,3.039-7.236,4.913-11.871,4.913h-23.088
		c-3.147-11.091-5.909-22.29-8.276-33.578h31.364C138.316,387.583,145.83,395.105,145.83,404.377z"/>
	<path style="fill:#F6A35D;" d="M218.033,322.783l-3.69,27.4c-0.28,2.06-0.57,4.12-0.87,6.18h-42.89c-4.63,0-8.84-1.88-11.88-4.91
		c-3.03-3.04-4.91-7.25-4.91-11.88c0-9.27,7.52-16.79,16.79-16.79L218.033,322.783L218.033,322.783z"/>
</g>
<path d="M190.28,225.161c-0.65,0-1.31-0.061-1.96-0.19c-0.63-0.13-1.26-0.32-1.87-0.57c-0.6-0.25-1.18-0.56-1.72-0.92
	c-0.55-0.359-1.06-0.779-1.52-1.239c-0.46-0.46-0.88-0.971-1.25-1.52c-0.36-0.54-0.67-1.13-0.92-1.73
	c-0.25-0.601-0.44-1.23-0.57-1.87c-0.13-0.641-0.19-1.301-0.19-1.95c0-0.66,0.06-1.311,0.19-1.96c0.13-0.641,0.32-1.271,0.57-1.87
	c0.25-0.6,0.56-1.18,0.92-1.73c0.37-0.54,0.79-1.05,1.25-1.52c0.46-0.46,0.97-0.87,1.52-1.24c0.54-0.359,1.12-0.67,1.72-0.92
	c0.61-0.25,1.24-0.439,1.87-0.57c1.29-0.26,2.62-0.26,3.91,0c0.64,0.131,1.27,0.32,1.87,0.57c0.61,0.25,1.19,0.561,1.73,0.92
	c0.55,0.37,1.06,0.78,1.52,1.24c0.46,0.47,0.88,0.98,1.24,1.52c0.36,0.551,0.67,1.131,0.92,1.73c0.25,0.6,0.45,1.23,0.57,1.87
	c0.13,0.649,0.2,1.3,0.2,1.96c0,0.649-0.07,1.31-0.2,1.95c-0.12,0.64-0.32,1.27-0.57,1.87c-0.25,0.6-0.56,1.189-0.92,1.73
	c-0.36,0.55-0.78,1.061-1.24,1.52c-0.46,0.46-0.97,0.88-1.52,1.239c-0.54,0.36-1.12,0.67-1.73,0.92c-0.6,0.25-1.23,0.44-1.87,0.57
	C191.59,225.1,190.93,225.161,190.28,225.161z"/>
<path style="fill:#F4731F;" d="M291.396,381.983l-17.843,21.118c-1.344,1.586-2.696,3.167-4.057,4.743l-36.163-23.061
	c-3.904-2.489-6.443-6.338-7.377-10.527c-0.92-4.192-0.242-8.753,2.248-12.657c4.984-7.816,15.368-10.113,23.184-5.129
	L291.396,381.983z"/>
<path d="M325.85,286.321c-2.63,0-5.21-1.069-7.07-2.93c-0.46-0.46-0.87-0.97-1.24-1.52c-0.36-0.54-0.67-1.12-0.92-1.721
	c-0.25-0.609-0.44-1.239-0.57-1.869c-0.13-0.65-0.19-1.311-0.19-1.961c0-0.649,0.06-1.31,0.19-1.949
	c0.13-0.641,0.32-1.271,0.57-1.87c0.25-0.61,0.56-1.19,0.92-1.73c0.37-0.55,0.78-1.06,1.24-1.52c0.47-0.46,0.98-0.88,1.52-1.24
	c0.55-0.36,1.13-0.67,1.73-0.92s1.23-0.44,1.87-0.57c1.29-0.26,2.62-0.26,3.91,0c0.64,0.13,1.27,0.32,1.87,0.57s1.18,0.56,1.73,0.92
	c0.54,0.36,1.05,0.78,1.52,1.24c0.46,0.46,0.88,0.97,1.24,1.52c0.36,0.54,0.67,1.12,0.92,1.73c0.25,0.6,0.44,1.229,0.57,1.87
	c0.13,0.64,0.19,1.3,0.19,1.949c0,0.65-0.06,1.311-0.19,1.961c-0.13,0.63-0.32,1.26-0.57,1.869c-0.25,0.601-0.56,1.181-0.92,1.721
	c-0.36,0.55-0.78,1.06-1.24,1.52c-0.47,0.46-0.98,0.88-1.52,1.25c-0.55,0.36-1.13,0.67-1.73,0.92s-1.23,0.44-1.87,0.57
	C327.161,286.262,326.511,286.321,325.85,286.321z"/>
<path d="M152.829,71.92c-0.65,0-1.31-0.061-1.95-0.19c-0.64-0.13-1.27-0.319-1.87-0.569c-0.61-0.25-1.19-0.561-1.73-0.92
	c-0.55-0.37-1.06-0.78-1.52-1.25c-0.46-0.46-0.88-0.971-1.24-1.521c-0.36-0.54-0.67-1.12-0.92-1.72
	c-0.25-0.601-0.44-1.231-0.57-1.87c-0.13-0.65-0.2-1.3-0.2-1.95c0-0.66,0.07-1.31,0.2-1.96c0.13-0.64,0.32-1.27,0.57-1.87
	s0.56-1.18,0.92-1.729c0.36-0.54,0.78-1.061,1.24-1.521s0.97-0.88,1.52-1.24c0.54-0.359,1.12-0.67,1.73-0.92
	c0.6-0.25,1.23-0.439,1.87-0.569c1.29-0.261,2.62-0.261,3.91,0c0.63,0.13,1.26,0.319,1.87,0.569c0.6,0.25,1.18,0.561,1.72,0.92
	c0.55,0.36,1.06,0.78,1.52,1.24c0.46,0.46,0.88,0.98,1.25,1.521c0.36,0.55,0.67,1.13,0.92,1.729c0.25,0.601,0.44,1.23,0.57,1.87
	c0.13,0.65,0.19,1.3,0.19,1.96c0,0.65-0.06,1.3-0.19,1.95c-0.13,0.64-0.32,1.26-0.57,1.87c-0.25,0.6-0.56,1.18-0.92,1.72
	c-0.37,0.55-0.79,1.061-1.25,1.521c-0.46,0.47-0.97,0.88-1.52,1.25c-0.54,0.359-1.12,0.67-1.72,0.92
	c-0.61,0.25-1.24,0.439-1.87,0.569C154.139,71.859,153.48,71.92,152.829,71.92z"/>
<path d="M505.224,193.506c-0.29-4.616-3.708-8.431-8.265-9.224l-45.417-7.908l0,0c-12.695-2.212-25.698-2.863-38.597-2.006
	c12.332-46.395,1.878-91.396,1.378-93.49c-1.254-5.243-6.439-8.548-11.72-7.474c-2.109,0.429-47.322,9.928-84.188,40.679
	c-4.664-12.055-10.739-23.569-18.097-34.145l-8.852-12.724l5.054-5.94c2.998-3.522,3.189-8.641,0.461-12.376
	c-2.727-3.735-7.66-5.113-11.928-3.333l-42.545,17.751c-11.894,4.962-23.209,11.405-33.625,19.065
	C194.335,36.631,161.33,4.306,159.782,2.81c-3.876-3.747-10.024-3.747-13.9-0.001c-1.548,1.496-34.556,33.819-49.104,79.57
	c-10.416-7.658-21.73-14.101-33.623-19.063L20.609,45.565c-4.268-1.78-9.201-0.403-11.928,3.333
	c-2.727,3.735-2.536,8.854,0.462,12.376l46.483,54.625c12.013,14.116,21.033,30.204,26.811,47.816l3.937,12.001
	c-16.082,15.539-23.852,37.751-20.575,60.443l3.113,23.142c0.001,0.005,0.001,0.01,0.001,0.016l0.909,6.749l11.51,85.567
	c1.712,12.745,3.918,25.533,6.552,37.99c0.001,0.004,0.001,0.008,0.002,0.012c2.399,11.441,5.24,22.966,8.443,34.255
	c0.009,0.033,0.022,0.064,0.032,0.097c1.201,4.243,2.441,8.42,3.686,12.42c15.545,49.889,22.384,58.809,24.635,61.744
	c6.755,8.801,16.992,13.848,28.088,13.848c0.002,0,0.005,0,0.007,0c0.127,0,0.252-0.01,0.378-0.011
	c0.169,0.003,0.339,0.005,0.508,0.005c4.127,0,8.198-0.719,12.109-2.141c3.466-1.259,14.015-5.092,53.911-38.742
	c11.027-9.306,21.811-19.227,32.048-29.484c8.674-8.682,17.194-17.846,25.333-27.245c1.382-1.6,2.756-3.206,4.127-4.826
	l17.844-21.118c0.017-0.02,0.031-0.043,0.047-0.063l57.731-68.347c14.57-16.915,19.883-40.024,14.726-61.376l9.761-7.993
	c14.341-11.744,30.597-20.458,48.315-25.901l68.564-21.064C502.601,202.335,505.514,198.122,505.224,193.506z M324.957,135.005
	c24.358-23.023,55.92-34.659,71.715-39.377c2.385,16.316,5.144,49.839-5.456,81.635c-0.406,0.083-0.807,0.184-1.213,0.271
	c-1.036,0.219-2.069,0.452-3.1,0.692c-0.611,0.142-1.222,0.279-1.831,0.429c-1.668,0.408-3.33,0.836-4.982,1.297
	c-1.296,0.362-2.584,0.742-3.867,1.134c-0.426,0.13-0.849,0.27-1.274,0.404c-0.855,0.269-1.708,0.539-2.557,0.822
	c-0.501,0.167-0.998,0.341-1.497,0.513c-0.769,0.264-1.536,0.53-2.3,0.806c-0.523,0.189-1.044,0.383-1.565,0.577
	c-0.735,0.273-1.468,0.551-2.198,0.835c-0.526,0.204-1.051,0.412-1.574,0.622c-0.725,0.291-1.447,0.587-2.167,0.888
	c-0.515,0.215-1.03,0.431-1.542,0.651c-0.732,0.315-1.46,0.638-2.187,0.964c-0.489,0.219-0.98,0.436-1.467,0.66
	c-0.776,0.357-1.546,0.725-2.316,1.094c-0.429,0.206-0.86,0.406-1.287,0.616c-0.966,0.474-1.925,0.962-2.882,1.455
	c-0.224,0.115-0.451,0.226-0.674,0.342c-0.954,0.498-1.901,1.01-2.845,1.527l20.385-31.967c2.969-4.657,1.602-10.839-3.055-13.809
	c-4.656-2.969-10.838-1.603-13.809,3.055l-20.385,31.966c0.071-1.074,0.135-2.148,0.185-3.222c0.012-0.259,0.016-0.518,0.027-0.776
	c0.044-1.068,0.081-2.135,0.103-3.204c0.01-0.483,0.01-0.965,0.016-1.448c0.01-0.846,0.018-1.692,0.015-2.538
	c-0.002-0.54-0.013-1.081-0.02-1.621c-0.011-0.793-0.025-1.587-0.048-2.38c-0.016-0.56-0.038-1.12-0.06-1.68
	c-0.031-0.776-0.066-1.553-0.108-2.329c-0.031-0.566-0.064-1.133-0.1-1.699c-0.05-0.779-0.108-1.557-0.17-2.336
	c-0.044-0.557-0.088-1.113-0.138-1.67c-0.072-0.805-0.154-1.609-0.238-2.414c-0.055-0.528-0.107-1.056-0.168-1.584
	c-0.101-0.885-0.216-1.77-0.332-2.655c-0.058-0.445-0.11-0.889-0.172-1.334c-0.185-1.328-0.384-2.656-0.603-3.983
	c-0.279-1.698-0.594-3.391-0.929-5.081c-0.119-0.602-0.25-1.201-0.375-1.802c-0.219-1.045-0.446-2.088-0.686-3.129
	C325.131,135.815,325.053,135.408,324.957,135.005z M306.698,145.181c0.029,0.15,0.063,0.298,0.092,0.448
	c0.248,1.28,0.478,2.564,0.689,3.85c0.275,1.669,0.508,3.34,0.723,5.011c0.051,0.401,0.102,0.802,0.15,1.203
	c0.199,1.657,0.377,3.314,0.517,4.971c0.012,0.142,0.019,0.284,0.031,0.426c0.126,1.548,0.222,3.097,0.297,4.645
	c0.019,0.392,0.039,0.783,0.055,1.175c0.066,1.649,0.11,3.299,0.118,4.947c0.001,0.23-0.004,0.459-0.004,0.689
	c0,1.483-0.025,2.965-0.072,4.446c-0.012,0.372-0.021,0.744-0.036,1.116c-0.065,1.643-0.155,3.285-0.278,4.926
	c-0.022,0.287-0.05,0.573-0.073,0.86c-0.117,1.451-0.258,2.9-0.421,4.349c-0.038,0.341-0.073,0.682-0.114,1.023
	c-0.196,1.636-0.42,3.271-0.673,4.903c-0.017,0.11-0.037,0.219-0.054,0.329c-0.151-0.086-0.308-0.16-0.46-0.245
	c-0.742-0.413-1.491-0.811-2.246-1.195c-0.223-0.113-0.443-0.232-0.667-0.343c-0.928-0.459-1.866-0.894-2.811-1.309
	c-0.284-0.124-0.57-0.241-0.855-0.361c-0.714-0.301-1.433-0.591-2.156-0.867c-0.321-0.123-0.642-0.248-0.965-0.366
	c-0.943-0.344-1.892-0.672-2.848-0.973c-0.27-0.085-0.543-0.159-0.814-0.24c-0.739-0.222-1.482-0.433-2.228-0.63
	c-0.376-0.099-0.753-0.196-1.131-0.289c-0.774-0.19-1.551-0.365-2.332-0.527c-0.296-0.061-0.591-0.128-0.888-0.185
	c-0.926-0.179-1.858-0.335-2.792-0.476c-0.377-0.057-0.755-0.107-1.134-0.157c-0.737-0.098-1.476-0.183-2.216-0.257
	c-0.232-0.023-0.461-0.06-0.693-0.08l1.557-6.079c5.245-20.481,6.437-41.487,3.541-62.432l-4.108-29.72l2.499,3.593
	C295.082,107.431,302.914,125.956,306.698,145.181z M265.698,120.225c2.538,18.361,1.494,36.776-3.105,54.732l-3.139,12.259
	c-8.92,1.825-17.33,5.344-24.853,10.392c-3.615-8.155-8.794-15.62-15.31-21.895l3.936-11.998c5.777-17.612,14.798-33.7,26.81-47.816
	l12.957-15.227L265.698,120.225z M204.767,346.363h-34.183c-1.819,0-3.531-0.708-4.797-1.97c-1.285-1.289-1.993-3.001-1.993-4.82
	c0-3.744,3.046-6.79,6.79-6.79h36.01L204.767,346.363z M250.21,81.773l4.041-1.686l-19.444,22.851
	c-13.703,16.101-23.992,34.452-30.583,54.543l-2.001,6.1c-0.156-0.08-0.317-0.149-0.474-0.228c-0.76-0.382-1.525-0.749-2.295-1.102
	c-0.242-0.111-0.482-0.225-0.724-0.333c-0.987-0.439-1.981-0.858-2.985-1.25c-0.139-0.054-0.28-0.103-0.42-0.156
	c-0.87-0.334-1.746-0.648-2.628-0.946c-0.291-0.098-0.582-0.194-0.873-0.288c-0.829-0.268-1.663-0.521-2.501-0.758
	c-0.21-0.059-0.418-0.124-0.628-0.181c-1.031-0.281-2.068-0.537-3.111-0.771c-0.242-0.054-0.487-0.101-0.73-0.153
	c-0.825-0.176-1.653-0.336-2.485-0.482c-0.309-0.054-0.618-0.108-0.928-0.158c-0.948-0.153-1.899-0.289-2.854-0.402
	c-0.118-0.014-0.234-0.033-0.352-0.046c-1.062-0.121-2.13-0.212-3.2-0.285c-0.107-0.007-0.213-0.022-0.32-0.028
	c0.048-0.109,0.093-0.22,0.141-0.329c0.662-1.509,1.35-3.005,2.063-4.486c0.149-0.311,0.304-0.618,0.456-0.928
	c0.637-1.299,1.292-2.587,1.968-3.864c0.142-0.269,0.28-0.54,0.424-0.808c0.777-1.446,1.582-2.877,2.409-4.295
	c0.188-0.322,0.381-0.642,0.571-0.962c0.753-1.267,1.523-2.522,2.315-3.765c0.13-0.205,0.256-0.412,0.387-0.616
	c0.893-1.384,1.815-2.751,2.757-4.105c0.224-0.322,0.451-0.642,0.678-0.962c0.894-1.263,1.805-2.514,2.742-3.75
	c0.089-0.118,0.175-0.238,0.265-0.355c1.01-1.323,2.051-2.625,3.11-3.915c0.257-0.313,0.515-0.624,0.775-0.935
	c1.08-1.294,2.176-2.578,3.306-3.839c0.869-0.969,1.752-1.927,2.648-2.872c0.118-0.124,0.24-0.245,0.358-0.369
	c0.799-0.836,1.604-1.667,2.423-2.483c0.004-0.004,0.008-0.008,0.012-0.011C217.574,99.358,233.23,88.859,250.21,81.773z
	 M113.537,96.498c8.161-32.52,28.527-59.308,39.305-71.774c10.778,12.436,31.107,39.154,39.282,71.776
	c-0.295,0.286-0.577,0.584-0.869,0.872c-0.764,0.75-1.518,1.51-2.267,2.275c-0.431,0.44-0.864,0.877-1.289,1.322
	c-1.189,1.244-2.364,2.501-3.512,3.781c-0.899,1.003-1.781,2.016-2.652,3.037c-0.287,0.336-0.565,0.678-0.849,1.016
	c-0.578,0.689-1.155,1.379-1.721,2.077c-0.332,0.409-0.657,0.823-0.984,1.235c-0.507,0.637-1.011,1.274-1.507,1.918
	c-0.339,0.439-0.673,0.882-1.007,1.325c-0.474,0.627-0.944,1.257-1.408,1.89c-0.333,0.455-0.663,0.912-0.992,1.37
	c-0.455,0.635-0.904,1.273-1.349,1.914c-0.318,0.458-0.635,0.916-0.949,1.377c-0.449,0.66-0.89,1.326-1.328,1.993
	c-0.294,0.447-0.59,0.893-0.88,1.343c-0.462,0.717-0.913,1.44-1.362,2.164c-0.252,0.406-0.509,0.808-0.757,1.216
	c-0.556,0.913-1.099,1.834-1.637,2.758c-0.13,0.224-0.266,0.445-0.396,0.67c-0.536,0.932-1.059,1.872-1.577,2.816V96.953
	c0-5.522-4.477-10-10-10c-5.523,0-10,4.478-10,10v37.914c-0.518-0.943-1.041-1.884-1.577-2.817c-0.129-0.225-0.265-0.446-0.396-0.67
	c-0.537-0.924-1.08-1.844-1.636-2.758c-0.248-0.408-0.505-0.81-0.757-1.216c-0.45-0.724-0.901-1.447-1.362-2.164
	c-0.29-0.451-0.586-0.897-0.881-1.345c-0.438-0.665-0.878-1.33-1.326-1.989c-0.314-0.463-0.633-0.922-0.952-1.382
	c-0.444-0.64-0.893-1.277-1.347-1.91c-0.328-0.458-0.659-0.915-0.992-1.37c-0.464-0.633-0.934-1.263-1.408-1.89
	c-0.334-0.442-0.668-0.885-1.007-1.325c-0.496-0.643-1.001-1.281-1.507-1.918c-0.328-0.412-0.653-0.826-0.985-1.235
	c-0.564-0.695-1.139-1.383-1.716-2.07c-0.286-0.341-0.566-0.685-0.855-1.023c-0.871-1.021-1.753-2.033-2.651-3.036
	c-1.148-1.281-2.323-2.539-3.514-3.783c-0.427-0.446-0.861-0.884-1.294-1.326c-0.743-0.759-1.491-1.513-2.25-2.258
	C114.123,97.091,113.837,96.788,113.537,96.498z M70.857,102.938l-19.445-22.85l4.04,1.686
	c18.032,7.524,34.566,18.903,48.077,33.038c0.134,0.141,0.273,0.277,0.407,0.419c0.895,0.944,1.777,1.9,2.644,2.868
	c1.128,1.259,2.222,2.541,3.301,3.833c0.261,0.313,0.521,0.625,0.779,0.94c1.057,1.288,2.096,2.587,3.104,3.906
	c0.091,0.119,0.177,0.24,0.268,0.36c0.933,1.23,1.84,2.476,2.73,3.733c0.231,0.326,0.463,0.652,0.691,0.98
	c0.939,1.35,1.859,2.712,2.749,4.091c0.131,0.202,0.255,0.408,0.385,0.611c0.79,1.239,1.558,2.491,2.309,3.754
	c0.194,0.327,0.391,0.653,0.582,0.981c0.825,1.414,1.629,2.842,2.404,4.285c0.142,0.264,0.277,0.53,0.417,0.795
	c0.675,1.275,1.33,2.562,1.966,3.858c0.154,0.315,0.312,0.628,0.464,0.944c0.713,1.481,1.401,2.975,2.063,4.484
	c0.046,0.104,0.089,0.208,0.134,0.312c-0.16,0.008-0.318,0.028-0.477,0.038c-0.894,0.053-1.786,0.123-2.674,0.211
	c-0.204,0.02-0.408,0.035-0.612,0.057c-1.063,0.115-2.121,0.257-3.174,0.421c-0.241,0.038-0.479,0.082-0.719,0.122
	c-0.857,0.144-1.711,0.304-2.561,0.48c-0.26,0.054-0.52,0.105-0.779,0.162c-1.04,0.229-2.074,0.477-3.1,0.754
	c-0.142,0.038-0.283,0.083-0.425,0.122c-0.897,0.249-1.788,0.518-2.674,0.804c-0.273,0.088-0.545,0.177-0.816,0.268
	c-0.941,0.317-1.877,0.65-2.803,1.009c-0.073,0.028-0.146,0.053-0.219,0.081c-0.992,0.388-1.972,0.806-2.946,1.242
	c-0.255,0.114-0.508,0.232-0.762,0.35c-0.796,0.368-1.585,0.751-2.368,1.151c-0.14,0.072-0.284,0.134-0.424,0.206l-1.956-5.963
	C94.849,137.39,84.559,119.04,70.857,102.938z M113.577,411.162c-0.058-0.216-0.12-0.43-0.177-0.646
	c-0.105-0.397-0.205-0.797-0.31-1.194c-0.562-2.139-1.112-4.284-1.646-6.436c-0.183-0.738-0.361-1.477-0.541-2.215
	c-0.25-1.027-0.489-2.058-0.733-3.087h18.866c3.746,0,6.794,3.047,6.794,6.793c0,1.811-0.708,3.515-1.994,4.801
	c-1.279,1.279-2.984,1.984-4.799,1.984H113.577z M140.549,485.978c-2.069-2.699-8.265-13.448-21.187-54.816h9.675
	c7.158,0,13.886-2.785,18.941-7.843c5.063-5.063,7.852-11.789,7.852-18.942c0-14.773-12.02-26.793-26.794-26.793h-23.178
	c-1.836-9.453-3.419-19.041-4.704-28.613l-6.378-47.417h34.268c7.159,0,13.886-2.784,18.941-7.839
	c5.061-5.062,7.849-11.788,7.849-18.941c0-14.772-12.018-26.79-26.79-26.79H87.568l-1.955-14.53
	c-0.005-0.035-0.01-0.071-0.015-0.106c-0.398-2.743-0.563-5.475-0.52-8.178h70.17c5.523,0,10-4.477,10-10c0-5.522-4.477-10-10-10
	H89.604c3.241-7.064,8.14-13.379,14.466-18.395c0.025-0.019,0.051-0.035,0.075-0.055c0.962-0.763,1.955-1.493,2.933-2.161
	l0.61-0.414c7.929-5.41,17.208-8.27,26.834-8.27h10.86h14.897h9.963c10.14,0,19.965,3.047,28.415,8.811
	c0.028,0.02,0.057,0.038,0.085,0.058l0.459,0.306c0.008,0.005,0.016,0.011,0.024,0.017c0.709,0.484,1.41,1.001,2.098,1.525
	c12.107,9.259,19.221,23.817,19.251,38.942c0,0.092,0,0.183-0.001,0.275c-0.002,0.453-0.011,0.907-0.025,1.362
	c-0.007,0.217-0.017,0.433-0.027,0.649c-0.017,0.363-0.035,0.726-0.059,1.089c-0.024,0.347-0.055,0.694-0.087,1.041
	c-0.023,0.252-0.042,0.504-0.068,0.757c-0.066,0.618-0.141,1.236-0.231,1.853c-0.005,0.034-0.01,0.069-0.014,0.104l-10.779,80.124
	h-38.701c-14.772,0-26.79,12.017-26.79,26.79c0,7.149,2.78,13.876,7.851,18.963c5.065,5.048,11.791,7.827,18.939,7.827h31.161
	c-0.235,1.381-0.474,2.761-0.721,4.139c-1.18,6.588-2.473,13.139-3.896,19.591c-2.995,13.602-6.605,27.209-10.73,40.441
	c-3.677,11.785-6.813,21.111-9.469,28.49c-0.51,1.418-1,2.751-1.475,4.029c-0.455,1.223-0.894,2.382-1.317,3.483
	c-0.312,0.812-0.616,1.592-0.912,2.34c-0.507,1.285-0.991,2.481-1.45,3.59c-0.997,2.406-1.882,4.415-2.663,6.086
	c-2.02,4.321-3.348,6.419-4.113,7.415c-0.363,0.473-0.75,0.921-1.157,1.343c-0.268,0.278-0.559,0.528-0.845,0.784
	c-0.145,0.129-0.279,0.272-0.428,0.396c-0.402,0.332-0.822,0.635-1.253,0.923c-0.045,0.03-0.086,0.066-0.131,0.095
	c-0.475,0.31-0.967,0.592-1.472,0.846c-0.004,0.002-0.008,0.005-0.012,0.007c-0.507,0.254-1.028,0.48-1.561,0.676
	c-0.005,0.002-0.01,0.005-0.015,0.006c-0.512,0.188-1.037,0.346-1.569,0.479c-0.029,0.007-0.058,0.018-0.087,0.026
	c-0.5,0.122-1.011,0.211-1.525,0.283c-0.067,0.009-0.132,0.026-0.199,0.034c-0.486,0.061-0.98,0.089-1.476,0.105
	c-0.166,0.005-0.328,0.028-0.495,0.028C147.941,492.001,143.485,489.805,140.549,485.978z M90.261,267.981h38.781
	c3.744,0,6.79,3.046,6.79,6.79c0,1.811-0.707,3.516-1.991,4.799c-1.277,1.277-2.982,1.982-4.799,1.982H92.087L90.261,267.981z
	 M237.578,427.496c-9.84,9.859-20.2,19.391-30.792,28.329c-3.833,3.233-7.373,6.171-10.642,8.843c0.01-0.027,0.02-0.055,0.029-0.082
	c0.323-0.904,0.651-1.83,0.986-2.783c0.014-0.041,0.029-0.083,0.043-0.124c0.681-1.942,1.386-3.988,2.116-6.145
	c0.014-0.043,0.028-0.084,0.043-0.126c0.35-1.034,0.706-2.096,1.067-3.181c0.037-0.112,0.074-0.222,0.111-0.335
	c0.351-1.056,0.708-2.138,1.07-3.244c0.048-0.146,0.096-0.293,0.144-0.44c0.361-1.106,0.728-2.236,1.1-3.392
	c0.046-0.143,0.092-0.288,0.139-0.431c0.379-1.18,0.764-2.383,1.155-3.617c0.035-0.111,0.071-0.224,0.106-0.335
	c0.407-1.286,0.819-2.596,1.239-3.941c0.537-1.722,1.065-3.45,1.585-5.184c3.639-12.134,6.857-24.525,9.583-36.907
	c0.788-3.572,1.53-7.179,2.248-10.8c2.138,3.871,5.217,7.172,9.048,9.616l26.274,16.755
	C248.79,415.97,243.223,421.844,237.578,427.496z M267.532,394.731l-28.821-18.379c-1.535-0.979-2.598-2.497-2.987-4.242
	c-0.39-1.777-0.066-3.601,0.912-5.135c1.294-2.028,3.492-3.138,5.736-3.138c1.248,0,2.511,0.344,3.64,1.064l30.363,19.362
	L267.532,394.731z M341.632,307.007c-0.023,0.026-0.046,0.053-0.068,0.08l-52.168,61.76l-32.631-20.809
	c-10.401-6.634-23.687-5.161-32.413,2.759l3.593-26.679c0.003-0.025,0.003-0.05,0.006-0.076l11.928-88.67
	c0.002-0.011,0.003-0.022,0.004-0.033c0.088-0.61,0.165-1.22,0.236-1.831l50.825,32.412c1.667,1.063,3.527,1.569,5.368,1.569
	c3.302,0,6.534-1.634,8.441-4.624c2.969-4.657,1.602-10.839-3.055-13.809l-55.303-35.267c6.821-4.417,14.623-7.109,22.865-7.829
	c0.298-0.027,0.597-0.055,0.893-0.076c0.669-0.047,1.34-0.084,2.014-0.105l0.735-0.021c4.803-0.15,9.542,0.419,14.094,1.674
	c3.698,1.019,7.271,2.497,10.657,4.4c0.783,0.44,1.559,0.895,2.321,1.382l9.157,5.84l12.56,8.01
	c0.001,0.001,0.002,0.001,0.003,0.002l8.397,5.355c1.069,0.681,2.107,1.4,3.115,2.155c7.054,5.283,12.583,12.324,16.105,20.552
	c0.014,0.032,0.028,0.065,0.043,0.098l0.24,0.546c0.336,0.786,0.644,1.588,0.937,2.386
	C356.573,274.684,353.205,293.594,341.632,307.007z M423.743,205.639c-20.211,6.209-38.754,16.149-55.113,29.545l-4.967,4.067
	c-0.091-0.156-0.193-0.304-0.285-0.459c-0.43-0.721-0.872-1.433-1.326-2.136c-0.149-0.23-0.294-0.463-0.446-0.692
	c-0.593-0.896-1.203-1.78-1.836-2.646c-0.095-0.129-0.194-0.254-0.289-0.383c-0.549-0.741-1.112-1.469-1.689-2.187
	c-0.194-0.242-0.391-0.481-0.588-0.72c-0.552-0.669-1.116-1.326-1.693-1.974c-0.147-0.165-0.29-0.334-0.439-0.499
	c-0.717-0.79-1.452-1.563-2.205-2.319c-0.176-0.177-0.358-0.349-0.536-0.524c-0.601-0.591-1.212-1.172-1.835-1.742
	c-0.231-0.211-0.462-0.422-0.696-0.63c-0.72-0.642-1.453-1.271-2.2-1.883c-0.088-0.072-0.172-0.147-0.26-0.218
	c-0.833-0.675-1.686-1.328-2.552-1.966c-0.085-0.062-0.164-0.13-0.249-0.192c0.1-0.067,0.2-0.137,0.3-0.205
	c1.367-0.915,2.749-1.804,4.144-2.669c0.295-0.183,0.594-0.36,0.89-0.541c1.235-0.753,2.481-1.487,3.737-2.2
	c0.263-0.149,0.523-0.303,0.786-0.45c1.435-0.803,2.885-1.578,4.347-2.33c0.327-0.168,0.656-0.331,0.983-0.497
	c1.326-0.669,2.662-1.319,4.01-1.946c0.209-0.098,0.417-0.2,0.627-0.296c1.504-0.691,3.024-1.35,4.553-1.988
	c0.351-0.147,0.704-0.29,1.057-0.433c1.45-0.591,2.909-1.164,4.381-1.708c0.124-0.046,0.247-0.095,0.371-0.141
	c1.571-0.575,3.157-1.116,4.752-1.637c0.375-0.122,0.75-0.243,1.126-0.362c1.612-0.512,3.232-1.007,4.868-1.464c0,0,0,0,0.001,0
	c0.108-0.03,0.218-0.056,0.326-0.086c1.143-0.317,2.29-0.622,3.442-0.909c0.194-0.049,0.391-0.091,0.586-0.139
	c1.096-0.269,2.195-0.53,3.298-0.772c0.011-0.003,0.022-0.005,0.033-0.007c17.991-3.944,36.831-4.377,54.953-1.222l4.311,0.751
	L423.743,205.639z"/>
<g>
</g>
<g>
</g>
<g>
</g>
<g>
</g>
<g>
</g>
<g>
</g>
<g>
</g>
<g>
</g>
<g>
</g>
<g>
</g>
<g>
</g>
<g>
</g>
<g>
</g>
<g>
</g>
<g>
</g>
</svg>
