<?xml version="1.0" encoding="iso-8859-1"?>
<!-- Generator: Adobe Illustrator 19.0.0, SVG Export Plug-In . SVG Version: 6.00 Build 0)  -->
<svg version="1.1" id="Capa_1" xmlns="http://www.w3.org/2000/svg" xmlns:xlink="http://www.w3.org/1999/xlink" x="0px" y="0px"
	 viewBox="0 0 512 512" style="enable-background:new 0 0 512 512;" xml:space="preserve">
<path style="fill:#FFC757;" d="M54.335,238.438c-7.314,21.516-11.283,44.578-11.283,68.568c0,70.106,33.882,132.293,86.159,171.096
	H382.79c52.277-38.803,86.159-100.99,86.159-171.096c0-23.99-3.97-47.051-11.284-68.568L54.335,238.438L54.335,238.438z"/>
<path d="M368.756,447.996c-2.808,0-5.598-1.175-7.576-3.467c-3.607-4.182-3.144-10.496,1.038-14.104
	c15.836-13.665,29.219-30.629,38.703-49.06c10.885-21.154,16.872-43.961,17.796-67.787c0.213-5.519,4.84-9.822,10.379-9.605
	c5.519,0.214,9.819,4.861,9.605,10.38c-1.037,26.767-7.765,52.392-19.997,76.164c-10.647,20.69-25.661,39.726-43.42,55.05
	C373.395,447.197,371.069,447.996,368.756,447.996z"/>
<path d="M426.52,288.541c-0.66,0-1.31-0.06-1.96-0.19c-0.64-0.13-1.26-0.32-1.87-0.57c-0.6-0.25-1.18-0.56-1.72-0.92
	c-0.55-0.37-1.06-0.79-1.53-1.25c-1.859-1.86-2.93-4.44-2.93-7.07c0-0.65,0.07-1.31,0.2-1.95s0.32-1.27,0.57-1.87
	c0.25-0.61,0.56-1.19,0.92-1.73c0.369-0.55,0.779-1.06,1.239-1.52c0.471-0.46,0.98-0.88,1.53-1.24c0.54-0.36,1.12-0.67,1.72-0.92
	c0.61-0.25,1.23-0.44,1.87-0.57c1.29-0.26,2.62-0.26,3.91,0c0.64,0.13,1.27,0.32,1.87,0.57s1.18,0.56,1.729,0.92
	c0.54,0.36,1.061,0.78,1.521,1.24s0.88,0.97,1.24,1.52c0.359,0.54,0.67,1.12,0.92,1.73c0.25,0.6,0.439,1.23,0.569,1.87
	c0.131,0.64,0.2,1.3,0.2,1.95c0,2.63-1.069,5.21-2.93,7.07c-0.46,0.46-0.98,0.88-1.521,1.25c-0.55,0.36-1.13,0.67-1.729,0.92
	c-0.6,0.25-1.23,0.44-1.87,0.57C427.83,288.481,427.17,288.541,426.52,288.541z"/>
<path style="fill:#E24D4D;" d="M432.569,100.262h-15.03c10.436-4.171,17.818-14.354,17.818-26.278V62.21
	c0-15.635-12.674-28.309-28.309-28.309H104.952c-15.635,0-28.309,12.674-28.309,28.309v11.774c0,11.924,7.382,22.106,17.818,26.278
	H79.427L10,159.783l11.08,5.776c6.588,3.434,11.913,7.563,17.063,11.555c10.677,8.276,19.898,15.423,39.198,15.423
	c19.286,0,28.516-7.146,39.22-15.432c11.594-8.976,24.735-19.15,50.098-19.15c25.354,0,38.5,10.168,50.126,19.16
	c10.678,8.275,19.899,15.422,39.195,15.422c19.289,0,28.52-7.146,39.223-15.432c11.594-8.976,24.735-19.15,50.098-19.15
	c25.377,0,38.521,10.175,50.129,19.163c10.687,8.273,19.917,15.419,39.203,15.419c19.307,0,28.529-7.147,39.256-15.46
	c5.146-3.981,10.465-8.097,17.027-11.517L502,159.784L432.569,100.262z"/>
<path style="fill:#FFCF83;" d="M434.634,192.536c-19.286,0-28.516-7.146-39.203-15.419c-11.608-8.988-24.752-19.163-50.129-19.163
	c-25.363,0-38.504,10.174-50.098,19.15c-10.704,8.286-19.934,15.432-39.223,15.432c-19.296,0-28.517-7.147-39.195-15.422
	c-11.626-8.992-24.771-19.16-50.126-19.16c-25.363,0-38.504,10.174-50.098,19.15c-10.704,8.286-19.934,15.432-39.22,15.432
	c-0.311,0-0.611,0.004-0.917,0c-9.097,14.241-16.556,29.621-22.09,45.901h403.331c-5.534-16.281-12.992-31.671-22.089-45.912
	C435.262,192.529,434.953,192.536,434.634,192.536z"/>
<path d="M372.42,110.261c-2.63,0-5.21-1.07-7.07-2.93c-0.46-0.46-0.88-0.97-1.24-1.52c-0.359-0.54-0.67-1.12-0.92-1.73
	c-0.25-0.6-0.439-1.23-0.569-1.87s-0.2-1.3-0.2-1.95s0.07-1.31,0.2-1.95s0.319-1.27,0.569-1.88c0.25-0.6,0.561-1.18,0.92-1.72
	c0.36-0.55,0.78-1.06,1.24-1.52c2.32-2.32,5.78-3.39,9.021-2.73c0.64,0.12,1.27,0.32,1.87,0.57c0.609,0.25,1.19,0.56,1.73,0.92
	c0.55,0.36,1.061,0.78,1.52,1.24c0.46,0.46,0.88,0.97,1.25,1.52c0.359,0.54,0.659,1.12,0.909,1.72c0.25,0.61,0.45,1.24,0.58,1.88
	c0.13,0.64,0.19,1.3,0.19,1.95s-0.061,1.31-0.19,1.95c-0.13,0.64-0.33,1.27-0.58,1.87c-0.25,0.61-0.55,1.19-0.909,1.73
	c-0.37,0.55-0.79,1.06-1.25,1.52s-0.971,0.88-1.52,1.24c-0.54,0.36-1.12,0.67-1.73,0.92c-0.601,0.25-1.23,0.45-1.87,0.57
	C373.729,110.191,373.069,110.261,372.42,110.261z"/>
<g>
	<polygon style="fill:#F4731F;" points="171.155,366.213 171.155,415.199 213.577,439.691 256,415.199 256,366.213 213.577,341.72 	
		"/>
	<polygon style="fill:#F4731F;" points="256,366.213 256,415.199 298.423,439.691 340.845,415.199 340.845,366.213 298.423,341.72 	
		"/>
	<polygon style="fill:#F4731F;" points="213.577,292.735 213.577,341.721 256,366.213 298.423,341.722 298.423,292.736 256,268.206 
			"/>
</g>
<path d="M508.509,152.192l-68.461-58.691c3.411-5.769,5.31-12.463,5.31-19.518V62.209c0-21.124-17.186-38.309-38.31-38.309H104.952
	c-21.124,0-38.31,17.186-38.31,38.309v11.774c0,7.053,1.897,13.747,5.309,19.515l-68.46,58.693c-2.52,2.161-3.805,5.432-3.426,8.73
	c0.378,3.298,2.368,6.194,5.313,7.729l11.08,5.775c5.787,3.017,10.527,6.691,15.56,10.591c7.886,6.112,15.967,12.368,28.113,15.488
	c-6.074,11.141-11.2,22.759-15.264,34.714c-7.841,23.067-11.816,47.22-11.816,71.786c0,35.889,8.271,70.161,24.584,101.862
	c15.557,30.23,38.245,56.948,65.615,77.264c1.724,1.279,3.814,1.97,5.96,1.97h253.58c2.147,0,4.236-0.691,5.96-1.97
	c27.37-20.316,50.059-47.033,65.615-77.264c16.313-31.702,24.584-65.973,24.584-101.862c0-24.566-3.976-48.719-11.816-71.786
	c-4.066-11.964-9.192-23.585-15.262-34.722c12.149-3.127,20.243-9.393,28.138-15.512c5.02-3.883,9.76-7.551,15.529-10.558
	l11.083-5.775c2.944-1.535,4.935-4.43,5.314-7.729C512.313,157.624,511.029,154.353,508.509,152.192z M85.549,202.113
	c0.105-0.011,0.206-0.025,0.311-0.036c1.08-0.12,2.136-0.258,3.16-0.423c0.011-0.002,0.022-0.004,0.033-0.006
	c1.027-0.165,2.023-0.354,2.998-0.56c0.081-0.017,0.164-0.032,0.245-0.05c0.932-0.201,1.837-0.423,2.723-0.658
	c0.121-0.032,0.243-0.063,0.363-0.096c0.857-0.234,1.691-0.485,2.509-0.749c0.133-0.043,0.267-0.086,0.399-0.13
	c0.803-0.266,1.588-0.546,2.356-0.839c0.128-0.049,0.255-0.098,0.382-0.148c0.767-0.299,1.519-0.609,2.253-0.933
	c0.108-0.047,0.214-0.096,0.321-0.144c0.747-0.335,1.481-0.679,2.198-1.037c0.071-0.035,0.14-0.072,0.21-0.107
	c0.749-0.377,1.485-0.764,2.203-1.163c0.002-0.001,0.003-0.002,0.005-0.003c0.724-0.402,1.432-0.816,2.129-1.237
	c0.059-0.036,0.12-0.071,0.179-0.107c0.662-0.403,1.312-0.814,1.953-1.231c0.09-0.059,0.18-0.116,0.27-0.175
	c0.622-0.408,1.234-0.822,1.839-1.241c0.099-0.068,0.198-0.137,0.297-0.206c0.597-0.416,1.186-0.836,1.77-1.26
	c0.101-0.073,0.201-0.146,0.301-0.22c0.583-0.426,1.161-0.855,1.734-1.286c0.092-0.069,0.183-0.139,0.275-0.208
	c0.577-0.436,1.15-0.872,1.72-1.31c0.105-0.081,0.209-0.162,0.314-0.242c0.506-0.39,1.01-0.78,1.514-1.169
	c0.056-0.043,0.113-0.087,0.169-0.13c6.257-4.844,12.326-9.537,20.199-12.771c0.171-0.07,0.34-0.142,0.512-0.211
	c1.069-0.426,2.175-0.822,3.316-1.191c0.393-0.127,0.79-0.252,1.193-0.372c0.832-0.248,1.681-0.482,2.555-0.697
	c0.031-0.008,0.06-0.016,0.091-0.024c0.83-0.203,1.686-0.385,2.558-0.557c0.758-0.149,1.526-0.29,2.318-0.413
	c0.798-0.124,1.62-0.231,2.453-0.328c1.081-0.126,2.193-0.231,3.338-0.309c1.063-0.073,2.151-0.127,3.273-0.156
	c0.712-0.018,1.435-0.029,2.172-0.029c1.467,0,2.881,0.04,4.251,0.112c0.933,0.049,1.841,0.117,2.731,0.197
	c8.565,0.773,15.24,2.964,21.009,5.923c0.986,0.506,1.949,1.031,2.887,1.578c0.046,0.027,0.09,0.054,0.136,0.081
	c4.647,2.725,8.775,5.916,12.987,9.175c1.139,0.883,2.283,1.768,3.441,2.647c10.144,7.696,21.488,14.869,41.877,14.869
	c1.563,0,3.069-0.046,4.53-0.128c1.854-0.103,3.633-0.266,5.335-0.49c0.898-0.118,1.769-0.257,2.627-0.406
	c0.793-0.138,1.573-0.285,2.334-0.448c0.275-0.059,0.545-0.12,0.816-0.182c0.919-0.21,1.82-0.432,2.695-0.676
	c0.061-0.017,0.119-0.036,0.18-0.053c11.426-3.223,19.217-9.25,26.828-15.143c6.257-4.844,12.326-9.537,20.199-12.771
	c0.171-0.07,0.34-0.142,0.512-0.211c1.069-0.426,2.175-0.822,3.316-1.191c0.393-0.127,0.79-0.252,1.193-0.372
	c0.832-0.248,1.681-0.482,2.555-0.697c0.031-0.008,0.06-0.016,0.091-0.024c0.83-0.203,1.686-0.385,2.558-0.557
	c0.758-0.149,1.526-0.29,2.318-0.413c0.798-0.124,1.62-0.231,2.453-0.328c1.081-0.126,2.192-0.231,3.338-0.309
	c1.063-0.073,2.151-0.127,3.272-0.156c0.712-0.018,1.435-0.029,2.172-0.029c15.092,0,24.871,3.917,33.191,9.216
	c0.003,0.001,0.005,0.003,0.008,0.005c0.211,0.134,0.418,0.271,0.627,0.407c0.166,0.108,0.334,0.215,0.499,0.324
	c0.021,0.014,0.041,0.028,0.061,0.041c3.331,2.207,6.451,4.623,9.621,7.077c0.06,0.047,0.122,0.094,0.182,0.141
	c0.486,0.376,0.974,0.753,1.462,1.129c0.119,0.092,0.237,0.183,0.357,0.275c0.559,0.43,1.122,0.858,1.687,1.285
	c0.106,0.08,0.211,0.16,0.316,0.239c0.565,0.425,1.134,0.847,1.708,1.266c0.106,0.078,0.213,0.155,0.319,0.233
	c0.58,0.421,1.165,0.838,1.758,1.251c0.102,0.071,0.204,0.141,0.306,0.212c0.604,0.418,1.215,0.831,1.835,1.237
	c0.09,0.059,0.18,0.117,0.27,0.175c0.641,0.416,1.29,0.827,1.951,1.229c0.061,0.037,0.122,0.072,0.183,0.109
	c1.396,0.842,2.843,1.649,4.354,2.409c0.062,0.031,0.122,0.063,0.184,0.094c0.723,0.361,1.464,0.708,2.219,1.045
	c0.101,0.045,0.2,0.091,0.301,0.135c0.74,0.326,1.499,0.639,2.272,0.94c0.121,0.047,0.241,0.094,0.362,0.14
	c0.773,0.295,1.564,0.576,2.373,0.844c0.127,0.042,0.256,0.083,0.384,0.124c0.822,0.266,1.663,0.518,2.525,0.752
	c0.115,0.031,0.231,0.061,0.346,0.091c0.891,0.237,1.801,0.459,2.737,0.661c0.08,0.017,0.162,0.032,0.242,0.049
	c1.965,0.415,4.034,0.748,6.221,0.99c0.093,0.01,0.184,0.023,0.278,0.033c1.043,0.111,2.117,0.197,3.215,0.265
	c0.095,0.006,0.184,0.017,0.279,0.023c5.04,8.361,9.467,17.07,13.238,26.034H68.825c3.771-8.961,8.2-17.669,13.245-26.036
	c0.098-0.006,0.188-0.018,0.286-0.024C83.446,202.31,84.513,202.224,85.549,202.113z M379.439,468.102H132.56
	c-49.849-38.275-79.51-98.246-79.51-161.096c0-19.975,2.884-39.643,8.58-58.568h388.738c5.696,18.925,8.58,38.593,8.58,58.568
	C458.949,369.855,429.288,429.826,379.439,468.102z M467.764,169.172c-10.384,8.047-17.243,13.364-33.13,13.364
	c-2.604,0-4.947-0.156-7.121-0.431c-0.309-0.039-0.634-0.067-0.936-0.112c-1.332-0.195-2.579-0.454-3.783-0.749
	c-0.257-0.063-0.525-0.116-0.776-0.183c-0.069-0.018-0.132-0.041-0.201-0.06c-7.765-2.123-13.2-6.323-20.264-11.792
	c-6.992-5.414-14.968-11.581-25.893-15.873c-1.186-0.466-2.408-0.91-3.666-1.328c-1.046-0.348-2.113-0.68-3.212-0.991
	c-0.046-0.013-0.09-0.027-0.136-0.04c-0.094-0.026-0.193-0.05-0.287-0.076c-0.928-0.256-1.879-0.496-2.846-0.723
	c-0.863-0.203-1.74-0.395-2.636-0.573c-1.46-0.29-2.965-0.546-4.517-0.765c-0.478-0.067-0.964-0.129-1.451-0.189
	c-1.451-0.179-2.94-0.326-4.473-0.438c-1.387-0.101-2.805-0.176-4.263-0.216c-0.942-0.026-1.897-0.042-2.869-0.042
	c-3.066,0-5.97,0.141-8.74,0.391c-0.769,0.069-1.527,0.147-2.275,0.234c-2.737,0.319-5.336,0.75-7.803,1.283
	c-0.129,0.028-0.261,0.052-0.389,0.08c-4.75,1.05-9.014,2.466-12.902,4.111c-0.275,0.116-0.549,0.232-0.819,0.351
	c-0.882,0.386-1.743,0.785-2.587,1.193c-0.15,0.073-0.304,0.143-0.453,0.216c-0.693,0.341-1.369,0.691-2.038,1.045
	c-7.175,3.798-12.971,8.28-18.214,12.338c-3.803,2.944-7.134,5.517-10.608,7.602c-0.08,0.048-0.16,0.101-0.24,0.149
	c-0.15,0.089-0.304,0.169-0.455,0.256c-0.445,0.257-0.891,0.515-1.343,0.755c-0.006,0.003-0.011,0.006-0.017,0.009
	c-2.41,1.279-4.942,2.321-7.788,3.084c-0.271,0.073-0.559,0.131-0.836,0.199c-1.196,0.292-2.433,0.549-3.755,0.743
	c-0.175,0.026-0.365,0.041-0.542,0.065c-0.887,0.12-1.811,0.214-2.765,0.289c-1.498,0.117-3.064,0.189-4.751,0.189
	c-1.314,0-2.546-0.049-3.744-0.121c-9.336-0.555-15.363-3.227-21.415-7.33c-2.547-1.728-5.103-3.699-7.919-5.882
	c-3.91-3.024-8.129-6.283-12.993-9.32c-9.508-5.937-21.499-11.016-38.534-11.815c-1.533-0.072-3.1-0.114-4.716-0.114
	c-3.066,0-5.969,0.141-8.74,0.391c-0.769,0.069-1.527,0.147-2.275,0.234c-2.738,0.319-5.336,0.75-7.803,1.283
	c-0.129,0.028-0.261,0.052-0.389,0.08c-4.75,1.05-9.015,2.466-12.902,4.111c-0.275,0.116-0.549,0.232-0.819,0.351
	c-0.882,0.386-1.743,0.785-2.587,1.193c-0.15,0.073-0.305,0.143-0.454,0.216c-0.693,0.341-1.369,0.691-2.038,1.045
	c-7.175,3.798-12.972,8.28-18.214,12.338c-9.001,6.969-15.362,11.88-27.247,13.06c-0.157,0.016-0.311,0.033-0.469,0.047
	c-1.678,0.151-3.461,0.232-5.382,0.232c-15.878,0-22.719-5.301-33.086-13.337c-4.755-3.685-10.086-7.817-16.548-11.426
	l55.419-47.512h11.334c0.007,0,0.015-0.001,0.022-0.001h240.546c5.522,0,10-4.477,10-10s-4.478-10-10-10H96.617
	c-6.109-3.116-9.975-9.329-9.975-16.277V62.209c0-10.096,8.214-18.309,18.31-18.309h302.096c10.096,0,18.31,8.213,18.31,18.309
	v11.774c0,7.522-4.525,14.192-11.53,16.992c-4.451,1.779-7.014,6.468-6.107,11.176c0.905,4.708,5.025,8.11,9.819,8.11h11.33
	l55.421,47.512C477.851,161.369,472.522,165.491,467.764,169.172z"/>
<path d="M345.846,357.553l-37.423-21.606v-43.21c0-3.57-1.903-6.87-4.994-8.657l-42.423-24.53c-3.098-1.791-6.914-1.79-10.012,0
	l-42.423,24.529c-3.091,1.787-4.994,5.087-4.994,8.657v43.212l-37.423,21.606c-3.094,1.786-5,5.087-5,8.66v48.985
	c0,3.573,1.906,6.874,5,8.66l42.423,24.493c1.547,0.893,3.273,1.34,5,1.34s3.453-0.447,5-1.34L256,426.746l37.423,21.606
	c1.547,0.893,3.273,1.34,5,1.34s3.453-0.447,5-1.34l42.423-24.493c3.094-1.786,5-5.087,5-8.66v-48.985
	C350.846,362.641,348.939,359.339,345.846,357.553z M256,279.757l32.423,18.748v37.441L256,354.666l-32.423-18.72v-37.443
	L256,279.757z M213.577,428.145l-32.423-18.719v-37.439l32.422-18.719l31.623,18.257l0.8,0.462v37.439L213.577,428.145z
	 M330.846,409.425l-32.423,18.719L266,409.425v-37.438l32.425-18.719l32.421,18.719L330.846,409.425L330.846,409.425z"/>
<g>
</g>
<g>
</g>
<g>
</g>
<g>
</g>
<g>
</g>
<g>
</g>
<g>
</g>
<g>
</g>
<g>
</g>
<g>
</g>
<g>
</g>
<g>
</g>
<g>
</g>
<g>
</g>
<g>
</g>
</svg>
