<?xml version="1.0" encoding="iso-8859-1"?>
<!-- Generator: Adobe Illustrator 19.0.0, SVG Export Plug-In . SVG Version: 6.00 Build 0)  -->
<svg version="1.1" id="Capa_1" xmlns="http://www.w3.org/2000/svg" xmlns:xlink="http://www.w3.org/1999/xlink" x="0px" y="0px"
	 viewBox="0 0 512 512" style="enable-background:new 0 0 512 512;" xml:space="preserve">
<path style="fill:#00CCB3;" d="M370.939,373.551H141.061V122.776c0-63.479,51.46-114.939,114.939-114.939l0,0
	c63.479,0,114.939,51.46,114.939,114.939V373.551z"/>
<g>
	<rect x="159.347" y="269.061" style="fill:#FFFFFF;" width="15.673" height="15.673"/>
	<rect x="159.347" y="237.714" style="fill:#FFFFFF;" width="15.673" height="15.673"/>
	<rect x="159.347" y="133.224" style="fill:#FFFFFF;" width="15.673" height="88.816"/>
</g>
<path style="fill:#008877;" d="M256,7.837L256,7.837c-3.523,0-7.007,0.167-10.449,0.478c58.581,5.281,104.49,54.505,104.49,114.461
	v250.775h20.898V122.776C370.939,59.297,319.479,7.837,256,7.837z"/>
<rect x="237.714" y="342.204" style="fill:#FFDA44;" width="36.571" height="161.959"/>
<path style="fill:#00CCB3;" d="M189.388,440.947L189.388,440.947c-7.214,0-13.061-5.847-13.061-13.061v-78.89h26.122v78.89
	C202.449,435.1,196.602,440.947,189.388,440.947z"/>
<rect x="297.796" y="339.592" width="15.673" height="15.673"/>
<rect x="329.143" y="339.592" width="15.673" height="15.673"/>
<path d="M378.775,122.776C378.775,55.077,323.699,0,256,0S133.224,55.077,133.224,122.776v258.612h35.265v46.498
	c0,11.523,9.375,20.898,20.898,20.898s20.898-9.375,20.898-20.898v-46.498h19.592V512h52.245V381.388h96.653V122.776z
	 M266.449,496.327h-20.898V350.041h20.898V496.327z M363.102,365.714h-80.98v-31.347h-52.245v31.347h-19.592v-18.286h-15.673v80.457
	c0,2.881-2.344,5.225-5.225,5.225c-2.881,0-5.224-2.344-5.224-5.225v-80.457H168.49v18.286h-19.592V122.776
	c0-59.057,48.045-107.102,107.102-107.102s107.102,48.045,107.102,107.102V365.714z"/>
<g>
</g>
<g>
</g>
<g>
</g>
<g>
</g>
<g>
</g>
<g>
</g>
<g>
</g>
<g>
</g>
<g>
</g>
<g>
</g>
<g>
</g>
<g>
</g>
<g>
</g>
<g>
</g>
<g>
</g>
</svg>
