<?xml version="1.0" encoding="iso-8859-1"?>
<!-- Generator: Adobe Illustrator 18.0.0, SVG Export Plug-In . SVG Version: 6.00 Build 0)  -->
<!DOCTYPE svg PUBLIC "-//W3C//DTD SVG 1.1//EN" "http://www.w3.org/Graphics/SVG/1.1/DTD/svg11.dtd">
<svg xmlns="http://www.w3.org/2000/svg" xmlns:xlink="http://www.w3.org/1999/xlink" version="1.1" id="Capa_1" x="0px" y="0px" viewBox="0 0 48 48" style="enable-background:new 0 0 48 48;" xml:space="preserve" width="512px" height="512px">
<g>
	<path d="M6,38h36V19H6V38z M28.5,23c-0.553,0-1-0.447-1-1s0.447-1,1-1c4.136,0,7.5,3.364,7.5,7.5S32.636,36,28.5,36   c-0.553,0-1-0.447-1-1s0.447-1,1-1c3.032,0,5.5-2.468,5.5-5.5S31.532,23,28.5,23z M19.5,21c0.553,0,1,0.447,1,1s-0.447,1-1,1   c-3.032,0-5.5,2.468-5.5,5.5s2.468,5.5,5.5,5.5c0.553,0,1,0.447,1,1s-0.447,1-1,1c-4.136,0-7.5-3.364-7.5-7.5S15.364,21,19.5,21z" fill="#8dc53f"/>
	<path d="M15.384,48h17.232c4.703,0,8.598-3.481,9.27-8H6.114C6.786,44.519,10.681,48,15.384,48z" fill="#8dc53f"/>
	<path d="M37.128,9.41c-1.338-0.616-1.933-0.954-2.083-1.608C36.183,7.376,37,6.286,37,5V3c0-1.654-1.346-3-3-3H13   c-1.654,0-3,1.346-3,3v2c0,1.62,1.292,2.935,2.899,2.99c-0.219,0.537-0.822,0.866-2.027,1.42C8.816,10.355,6,11.651,6,16.422V17h36   v-0.578C42,11.651,39.184,10.355,37.128,9.41z M12,5V3c0-0.552,0.448-1,1-1h21c0.552,0,1,0.448,1,1v2c0,0.552-0.448,1-1,1H13   C12.448,6,12,5.552,12,5z" fill="#8dc53f"/>
</g>
<g>
</g>
<g>
</g>
<g>
</g>
<g>
</g>
<g>
</g>
<g>
</g>
<g>
</g>
<g>
</g>
<g>
</g>
<g>
</g>
<g>
</g>
<g>
</g>
<g>
</g>
<g>
</g>
<g>
</g>
</svg>
