<?xml version="1.0" encoding="iso-8859-1"?>
<!-- Generator: Adobe Illustrator 19.0.0, SVG Export Plug-In . SVG Version: 6.00 Build 0)  -->
<svg version="1.1" id="Capa_1" xmlns="http://www.w3.org/2000/svg" xmlns:xlink="http://www.w3.org/1999/xlink" x="0px" y="0px"
	 viewBox="0 0 512.001 512.001" style="enable-background:new 0 0 512.001 512.001;" xml:space="preserve">
<path style="fill:#C69C6D;" d="M428.272,226.514h14.11c11.236,0,20.344-9.109,20.344-20.344l0,0
	c0-86.625-70.223-156.848-156.848-156.848h-1.308c-26.927,0-48.857-21.639-49.215-48.564l-0.009-0.656l0,0
	c0,27.184-22.036,49.22-49.22,49.22l0,0c-86.625,0-156.848,70.223-156.848,156.848l0,0c0,11.236,9.109,20.344,20.344,20.344h14.11"
	/>
<g>
	<path style="fill:#A67C52;" d="M112.109,206.17L112.109,206.17c0-86.625,70.223-156.848,156.848-156.848l0,0
		c6.283,0,12.284-1.19,17.808-3.335c-18.17-7.056-31.136-24.582-31.412-45.229l-0.009-0.656l0,0c0,27.184-22.036,49.22-49.22,49.22
		l0,0c-86.625,0-156.848,70.223-156.848,156.848l0,0c0,11.236,9.109,20.344,20.344,20.344h14.11h48.723
		C121.216,226.514,112.109,217.406,112.109,206.17z"/>
	<path style="fill:#A67C52;" d="M399.662,206.17L399.662,206.17c0-86.625-70.223-156.848-156.848-156.848l0,0
		c-6.283,0-12.284-1.19-17.808-3.335c18.17-7.056,31.136-24.582,31.412-45.229l0.009-0.656l0,0c0,27.184,22.036,49.22,49.22,49.22
		l0,0c86.625,0,156.848,70.223,156.848,156.848l0,0c0,11.236-9.109,20.344-20.344,20.344h-14.11h-48.724
		C390.553,226.514,399.662,217.406,399.662,206.17z"/>
</g>
<path id="SVGCleanerId_0" style="fill:#F9A12B;" d="M256.147,504.486c0.137-23.219,14.096-35.262,35.488-44.287l0,0
	c81.195-34.258,134.092-113.686,134.402-201.813l-0.883-41.717c0-44.853-76.027-81.213-169.81-81.213s-169.81,36.361-169.81,81.214
	l0.146,41.717c0.31,88.126,53.206,167.555,134.402,201.813l0,0c21.392,9.026,35.351,21.069,35.488,44.287h0.576V504.486z"/>
<g>
	<path id="SVGCleanerId_0_1_" style="fill:#F9A12B;" d="M256.147,504.486c0.137-23.219,14.096-35.262,35.488-44.287l0,0
		c81.195-34.258,134.092-113.686,134.402-201.813l-0.883-41.717c0-44.853-76.027-81.213-169.81-81.213s-169.81,36.361-169.81,81.214
		l0.146,41.717c0.31,88.126,53.206,167.555,134.402,201.813l0,0c21.392,9.026,35.351,21.069,35.488,44.287h0.576V504.486z"/>
</g>
<g>
	<path style="fill:#BB7920;" d="M425.154,216.67c0-44.853-76.027-81.213-169.81-81.213c-6.916,0-13.731,0.202-20.43,0.587
		c84.149,4.827,149.38,39.081,149.38,80.626l0.883,41.716c-0.31,88.127-53.207,167.555-134.402,201.813l0,0
		c-5.682,2.397-10.833,5.011-15.346,7.988c12.479,8.228,20.041,19.248,20.142,36.3h0.576c0.137-23.219,14.095-35.262,35.488-44.287
		l0,0c81.195-34.258,134.092-113.686,134.402-201.813L425.154,216.67z"/>
	<path style="fill:#BB7920;" d="M85.005,216.67c0-44.853,76.027-81.213,169.81-81.213c6.916,0,13.731,0.202,20.43,0.587
		c-84.149,4.827-149.38,39.081-149.38,80.626l-0.883,41.716c0.31,88.127,53.207,167.555,134.402,201.813l0,0
		c5.682,2.397,10.833,5.011,15.346,7.988c-12.479,8.228-20.041,19.248-20.142,36.3h-0.576
		c-0.137-23.219-14.095-35.262-35.488-44.287l0,0C137.328,425.941,84.432,346.513,84.122,258.386L85.005,216.67z"/>
</g>
<path d="M263.617,512h-15.516l-0.044-7.47c-0.103-17.356-9.054-28.194-30.895-37.409c-84.117-35.49-138.676-117.414-138.995-208.71
	l-0.146-41.716c0-24.774,19.181-47.574,54.008-64.232c33.064-15.813,76.858-24.522,123.316-24.522s90.252,8.709,123.316,24.522
	c34.79,16.639,53.966,39.407,54.008,64.123l0.884,41.825c-0.32,91.296-54.879,173.218-138.995,208.71
	c-21.842,9.215-30.793,20.054-30.895,37.409L263.617,512z M255.344,142.971c-87.974,0-162.296,33.75-162.296,73.699l0.146,41.69
	c0.3,85.262,51.252,161.771,129.81,194.916c11.92,5.03,24.984,12.147,32.854,24.654c7.87-12.507,20.934-19.625,32.856-24.654
	c78.528-33.133,129.472-109.599,129.809-194.824l-0.884-41.782C417.64,176.721,343.318,142.971,255.344,142.971z"/>
<path style="fill:#FAB455;" d="M275.688,472.616c0-10.873-8.814-19.688-19.688-19.688s-19.688,8.814-19.688,19.688l16.87,13.086
	L275.688,472.616z"/>
<g>
	<path style="fill:#FFFFFF;" d="M371.807,350.164l-13.724-6.118c12.089-27.118,18.272-55.947,18.377-85.685l15.028,0.053
		C391.376,290.254,384.754,321.124,371.807,350.164z"/>
	<path style="fill:#FFFFFF;" d="M338.435,403.608l-11.523-9.646c7.838-9.365,14.912-19.472,21.025-30.039l13.008,7.524
		C354.401,382.762,346.828,393.581,338.435,403.608z"/>
</g>
<rect x="403.462" y="145.698" width="15.028" height="15.028"/>
<rect x="418.49" y="160.725" width="15.028" height="15.028"/>
<rect x="388.434" y="115.643" width="15.028" height="15.028"/>
<rect x="358.379" y="93.101" width="15.028" height="15.028"/>
<rect x="335.838" y="115.643" width="15.028" height="15.028"/>
<rect x="313.296" y="85.587" width="15.028" height="15.028"/>
<rect x="290.755" y="70.56" width="15.028" height="15.028"/>
<rect x="245.672" y="55.532" width="15.028" height="15.028"/>
<rect x="260.7" y="102.498" width="15.028" height="15.028"/>
<rect x="215.617" y="78.077" width="15.028" height="15.028"/>
<rect x="200.589" y="100.615" width="15.028" height="15.028"/>
<rect x="155.506" y="93.101" width="15.028" height="15.028"/>
<rect x="178.048" y="70.56" width="15.028" height="15.028"/>
<path d="M305.878,41.807h-1.308c-22.693,0-41.4-18.46-41.704-41.151L262.857,0L247.83,0.101c0,22.997-18.709,41.707-41.707,41.707
	c-90.63,0-164.362,73.733-164.362,164.362c0,15.361,12.497,27.858,27.858,27.858h8.462l0.086,24.385
	c0.32,91.296,54.879,173.218,138.995,208.71c21.841,9.215,30.792,20.054,30.895,37.409l0.044,7.47h15.516l0.044-7.47
	c0.102-17.356,9.053-28.194,30.895-37.409c84.117-35.49,138.676-117.414,138.995-208.71l-0.515-24.385h9.345
	c15.361,0,27.858-12.497,27.858-27.858C470.239,115.54,396.507,41.807,305.878,41.807z M255.859,477.93
	c-2.843-4.518-6.371-8.325-10.27-11.592c2.135-3.527,5.997-5.898,10.412-5.898c4.349,0,8.161,2.298,10.315,5.738
	C262.341,469.48,258.748,473.34,255.859,477.93z M288.715,453.276c-3.24,1.367-6.563,2.896-9.845,4.639
	c-4.846-7.513-13.283-12.501-22.869-12.501c-9.634,0-18.107,5.038-22.942,12.613c-3.35-1.788-6.745-3.354-10.054-4.751
	c-78.557-33.145-129.51-109.655-129.81-194.916l-0.146-41.69c0-14.783,10.186-28.715,27.466-40.404v60.092h15.028v-68.815
	c4.545-2.275,9.39-4.426,14.505-6.438v35.877h15.028v-41.144c4.674-1.454,9.516-2.798,14.506-4.029v15.642h15.028v-18.91
	c18.868-3.579,39.398-5.569,60.738-5.569c21.834,0,42.826,2.081,62.051,5.818v18.661h15.028v-15.316
	c4.994,1.259,9.833,2.638,14.506,4.121v40.727h15.028v-35.351c5.123,2.058,9.968,4.257,14.505,6.581v68.146h15.028v-59.196
	c16.485,11.502,26.153,25.101,26.153,39.509l0.884,41.782C418.187,343.677,367.243,420.143,288.715,453.276z M442.382,219.001
	h-9.663l-0.051-2.412c-0.006-3.639-0.439-7.234-1.262-10.775h9.623v-15.028H426v1.205c-8.382-15.029-24.495-28.599-47.341-39.525
	c-33.064-15.813-76.858-24.522-123.316-24.522s-90.252,8.709-123.316,24.522c-22.229,10.632-38.07,23.768-46.633,38.32H72.851
	v15.028h6.435c-0.834,3.576-1.266,7.208-1.266,10.884l0.008,2.303h-8.408c-7.075,0-12.831-5.756-12.831-12.831
	c0-13.101,1.702-25.81,4.886-37.926h11.177v-15.028h-6.353c1.871-4.918,3.991-9.715,6.353-14.37v14.37h15.028V138.19H73.18
	c24.778-48.259,75.068-81.354,132.943-81.354c21.05,0,39.459-11.523,49.25-28.592c9.833,17.05,28.269,28.592,49.195,28.592h1.308
	c82.342,0,149.334,66.991,149.334,149.334C455.211,213.245,449.456,219.001,442.382,219.001z"/>
<rect x="110.423" y="108.129" width="15.028" height="15.028"/>
<rect x="125.451" y="130.67" width="15.028" height="15.028"/>
<rect x="132.965" y="78.077" width="15.028" height="15.028"/>
<g>
</g>
<g>
</g>
<g>
</g>
<g>
</g>
<g>
</g>
<g>
</g>
<g>
</g>
<g>
</g>
<g>
</g>
<g>
</g>
<g>
</g>
<g>
</g>
<g>
</g>
<g>
</g>
<g>
</g>
</svg>
