<?xml version="1.0" encoding="iso-8859-1"?>
<!-- Generator: Adobe Illustrator 19.0.0, SVG Export Plug-In . SVG Version: 6.00 Build 0)  -->
<svg version="1.1" id="Capa_1" xmlns="http://www.w3.org/2000/svg" xmlns:xlink="http://www.w3.org/1999/xlink" x="0px" y="0px"
	 viewBox="0 0 512 512" style="enable-background:new 0 0 512 512;" xml:space="preserve">
<g>
	<path style="fill:#A57D66;" d="M414.078,37.308l-88.923,136.349v0.538c-17.708,2.618-32.644,13.935-40.419,29.333
		c-7.853-7.314-17.861-12.318-28.948-13.858l0.077-0.616L375.583,11.67L414.078,37.308z"/>
	<polygon style="fill:#A57D66;" points="479.133,296.839 479.133,489.313 463.967,504.711 47.762,504.711 32.595,489.313 
		32.595,296.839 	"/>
</g>
<polygon style="fill:#705544;" points="494.531,235.248 494.531,296.839 479.133,296.839 32.595,296.839 17.197,296.839 
	17.197,235.248 40.294,235.248 471.435,235.248 "/>
<path style="fill:#36C665;" d="M471.435,219.85v15.398H40.294V219.85c0-29.641,24.251-53.892,53.892-53.892
	c14.089,0,26.947,5.543,36.569,14.474c8.853-17.63,27.1-29.872,48.118-29.872c25.329,0,46.579,17.708,52.352,41.266
	c5.312-1.771,11.009-2.772,16.938-2.772c2.618,0,5.158,0.154,7.622,0.616c11.086,1.54,21.095,6.544,28.948,13.858
	c7.776-15.398,22.711-26.716,40.419-29.333c2.463-0.385,5.081-0.538,7.699-0.538c15.474,0,29.487,6.699,39.341,17.245
	c9.624-14.936,26.331-24.945,45.346-24.945C447.183,165.958,471.435,190.209,471.435,219.85z"/>
<polygon style="fill:#8A6955;" points="101.886,296.839 86.488,296.839 32.595,296.839 32.595,489.313 47.761,504.711 
	117.052,504.711 101.886,489.313 "/>
<polygon style="fill:#594334;" points="86.488,235.248 40.294,235.248 17.197,235.248 17.197,296.839 32.595,296.839 
	86.488,296.839 "/>
<path style="fill:#00AD68;" d="M109.585,235.248V219.85c0-16.44,7.478-31.202,19.18-41.107
	c-9.379-7.911-21.423-12.785-34.578-12.785c-29.641,0-53.892,24.251-53.892,53.892v15.398h46.193H109.585z"/>
<polygon style="fill:#A57D66;" points="479.133,296.839 101.886,296.839 101.886,489.313 117.052,504.711 463.967,504.711 
	479.133,489.313 "/>
<path style="fill:#36C665;" d="M134.103,174.766c-1.861,1.22-3.645,2.544-5.337,3.977c0.665,0.562,1.354,1.097,1.991,1.689
	C131.745,178.464,132.89,176.589,134.103,174.766z"/>
<g>
	<path style="fill:#231F20;" d="M479.526,226.626v-7.442c0-34.103-27.745-61.849-61.849-61.849c-17.934,0-34.708,7.76-46.415,21.13
		c-9.114-7.214-20.081-11.749-31.542-13.039l51.707-79.285l11.363,7.107l8.437-13.489l-11.107-6.948l25.059-38.424L373.548,0
		l-26.665,39.51l-14.25-8.914l-8.437,13.489l13.782,8.62l-72.984,108.138l13.189,8.901l73.293-108.596l26.463,16.553l-57.855,88.712
		c-15.049,3.271-28.355,12.091-37.32,24.617c-7.665-5.2-16.354-8.574-25.56-9.881c-2.68-0.489-5.515-0.717-8.9-0.717
		c-3.901,0-7.791,0.377-11.632,1.123c-9.142-23.68-31.829-39.618-57.659-39.618c-20.222,0-38.739,9.756-50.261,25.989
		c-10.165-6.88-22.099-10.591-34.428-10.591c-34.103,0-61.849,27.745-61.849,61.849v7.442H9.377v77.503h15.398v187.778L44.567,512
		h103.651v-15.911h-96.99l-10.542-10.702V350.322h307.701V334.41H40.686v-30.282h430.628v30.538h15.911v-30.538h15.398v-77.503
		H479.526z M360.38,47.953l17.511-25.944l25.355,16.887L386.63,64.373L360.38,47.953z M486.712,288.217H25.288v-45.681h153.726
		v-15.911H48.385v-7.442c0-25.329,20.608-45.937,45.937-45.937c11.511,0,22.577,4.386,31.158,12.35l7.766,7.208l4.755-9.468
		c7.895-15.721,23.608-25.487,41.009-25.487c21.195,0,39.546,14.477,44.625,35.204l2.054,8.383l8.188-2.729
		c4.705-1.569,9.557-2.364,14.422-2.364c2.454,0,4.41,0.153,6.155,0.48l0.373,0.061c9.189,1.276,17.703,5.356,24.62,11.8
		l7.749,7.218l4.774-9.453c6.819-13.501,19.709-22.865,34.546-25.059c1.885-0.294,4.061-0.443,6.47-0.443
		c12.566,0,24.787,5.365,33.529,14.721l6.971,7.46l5.53-8.582c8.593-13.337,23.045-21.298,38.659-21.298
		c25.329,0,45.937,20.608,45.937,45.937v7.442H202.108v15.911h284.604L486.712,288.217L486.712,288.217z"/>
	<polygon style="fill:#231F20;" points="471.314,485.387 460.772,496.089 171.31,496.089 171.31,512 467.433,512 487.225,491.907 
		487.225,357.761 471.314,357.761 	"/>
</g>
<rect x="363.786" y="334.413" style="fill:#FFFFFF;" width="15.398" height="15.911"/>
<rect x="394.576" y="334.413" style="fill:#231F20;" width="15.398" height="15.911"/>
<g>
	<rect x="425.377" y="334.413" style="fill:#FFFFFF;" width="15.398" height="15.911"/>
	<polygon style="fill:#FFFFFF;" points="71.482,381.118 102.021,381.118 102.021,365.207 55.571,365.207 55.571,419.356 
		71.482,419.356 	"/>
	<polygon style="fill:#FFFFFF;" points="78.924,203.529 63.526,203.529 63.526,219.44 78.924,219.44 78.924,204.042 94.322,204.042 
		94.322,188.131 78.924,188.131 	"/>
</g>
<polygon style="fill:#231F20;" points="179.011,180.431 163.613,180.431 163.613,196.343 179.011,196.343 179.011,211.741 
	194.408,211.741 194.408,195.831 179.011,195.831 "/>
<rect x="417.682" y="195.832" style="fill:#FFFFFF;" width="15.398" height="15.911"/>
<rect x="55.573" y="434.749" style="fill:#231F20;" width="15.911" height="15.398"/>
<g>
</g>
<g>
</g>
<g>
</g>
<g>
</g>
<g>
</g>
<g>
</g>
<g>
</g>
<g>
</g>
<g>
</g>
<g>
</g>
<g>
</g>
<g>
</g>
<g>
</g>
<g>
</g>
<g>
</g>
</svg>
